<?xml version="1.0" encoding="UTF-8"?>
<svg version="1.1" xmlns="http://www.w3.org/2000/svg" width="512" height="512">
<path d="M0 0 C4.56987683 0.01140204 9.13952076 0.00460801 13.70938969 -0.00688553 C77.69077999 -0.14310373 153.3010797 1.55255573 204.4206543 45.26074219 C205.36811523 46.02644531 205.36811523 46.02644531 206.3347168 46.80761719 C244.23105809 77.85924485 254.45594897 133.96371217 259.0887146 179.79507446 C261.35640928 203.4712913 261.7412397 227.07295593 261.68139648 250.84008789 C261.66999444 255.40996472 261.67678848 259.97960865 261.68828201 264.54947758 C261.82450022 328.53086788 260.12884075 404.14116759 216.4206543 455.26074219 C215.91018555 455.89238281 215.3997168 456.52402344 214.8737793 457.17480469 C183.82215163 495.07114598 127.71768431 505.29603687 81.88632202 509.92880249 C58.21010518 512.19649717 34.60844056 512.58132759 10.84130859 512.52148438 C6.27143177 512.51008233 1.70178783 512.51687637 -2.86808109 512.5283699 C-66.84947139 512.66458811 -142.45977111 510.96892864 -193.5793457 467.26074219 C-194.21098633 466.75027344 -194.84262695 466.23980469 -195.4934082 465.71386719 C-233.38974949 434.66223952 -243.61464038 378.55777221 -248.24740601 332.72640991 C-250.51510068 309.05019307 -250.89993111 285.44852845 -250.84008789 261.68139648 C-250.82868585 257.11151966 -250.83547989 252.54187572 -250.84697342 247.9720068 C-250.98319162 183.9906165 -249.28753216 108.38031678 -205.5793457 57.26074219 C-205.06887695 56.62910156 -204.5584082 55.99746094 -204.0324707 55.34667969 C-172.98084304 17.4503384 -116.87637572 7.22544751 -71.04501343 2.59268188 C-47.36879659 0.32498721 -23.76713196 -0.05984321 0 0 Z " fill="#FEFEFE" transform="translate(250.579345703125,-0.2607421875)"/>
<path d="M0 0 C0.7967383 -0.00297112 1.59347661 -0.00594224 2.4143585 -0.0090034 C5.08723391 -0.01768296 7.76006449 -0.01919804 10.43295288 -0.02069092 C12.34832861 -0.0253197 14.26370342 -0.03034444 16.17907715 -0.03573608 C21.38595689 -0.04885826 26.59282373 -0.05530496 31.79971743 -0.05974674 C35.05419748 -0.0626784 38.30867403 -0.06678344 41.56315231 -0.07125092 C51.74958963 -0.08492678 61.93601891 -0.0945924 72.12246478 -0.09845281 C83.87338071 -0.10293072 95.62418016 -0.1204659 107.37506068 -0.1494534 C116.46227367 -0.17109015 125.54945394 -0.18115819 134.6366924 -0.18249393 C140.0618121 -0.18354073 145.4868223 -0.18942189 150.91191483 -0.20731354 C156.01892427 -0.22382811 161.12574233 -0.22593325 166.23276901 -0.21717453 C168.10236881 -0.21640591 169.97197904 -0.2207237 171.84155273 -0.23063278 C185.54500511 -0.2989759 195.81568653 0.155186 206.59457397 9.54669189 C214.33343673 17.41591834 219.45395215 27.38311281 219.51861572 38.5275116 C219.5078299 39.27126541 219.49704407 40.01501923 219.4859314 40.78131104 C219.48636948 41.59217163 219.48680756 42.40303223 219.48725891 43.23846436 C219.48519029 45.88443171 219.46195182 48.52974326 219.43832397 51.17559814 C219.43272114 53.023612 219.42845429 54.87163034 219.42546082 56.71965027 C219.41406615 61.55791766 219.38464585 66.39591021 219.35134888 71.23406982 C219.32053143 76.18133833 219.30693063 81.12865172 219.2918396 86.07598877 C219.25977051 95.76425985 219.20863996 105.45232792 219.14535522 115.14044189 C219.71640991 115.13600067 220.2874646 115.13155945 220.87582397 115.12698364 C226.84601324 115.08256612 232.81615517 115.05249928 238.78646851 115.03057861 C241.01142281 115.02055193 243.23636405 115.00692717 245.46127319 114.98956299 C248.66850013 114.96516797 251.87555208 114.95392519 255.08285522 114.94512939 C256.56302124 114.92964554 256.56302124 114.92964554 258.0730896 114.91384888 C269.04641632 114.91208611 277.84709406 117.54998532 286.19613647 124.96075439 C294.02715487 133.24452974 295.74535178 142.2300218 295.66293335 153.31622314 C295.67344727 155.07922256 295.67344727 155.07922256 295.68417358 156.87783813 C295.70167996 160.73645128 295.69015606 164.59432217 295.67660522 168.45294189 C295.67749791 171.14996934 295.68318114 173.84698388 295.6882019 176.54400635 C295.6954555 182.1859328 295.68595119 187.82764901 295.6668396 193.46954346 C295.64507502 199.96920656 295.65212803 206.46836757 295.67414522 212.96801853 C295.69236495 218.57346896 295.69482566 224.17876926 295.68439054 229.78423977 C295.67819137 233.12125934 295.67881738 236.4578563 295.6905365 239.79489136 C295.70074477 243.51848839 295.68513917 247.24113409 295.66293335 250.96466064 C295.67103027 252.05378754 295.6791272 253.14291443 295.68746948 254.26504517 C295.56494129 265.40865592 292.12284932 273.01005716 284.43441772 281.01153564 C277.31048889 287.6370326 268.43787915 290.35122789 258.81332397 290.21856689 C257.74751099 290.2072876 256.681698 290.1960083 255.58358765 290.18438721 C254.77897095 290.16988525 253.97435425 290.1553833 253.14535522 290.14044189 C253.16106567 291.078396 253.17677612 292.0163501 253.19296265 292.98272705 C253.24427487 296.48278395 253.28179395 299.9824376 253.31015015 303.48272705 C253.32518066 304.99385917 253.34561086 306.50494807 253.37167358 308.01593018 C253.40831212 310.19556377 253.42513861 312.37461764 253.43832397 314.55450439 C253.45403442 315.8637085 253.46974487 317.1729126 253.4859314 318.52178955 C252.9909377 323.78114193 251.42424381 326.98335222 247.52035522 330.51544189 C242.9919234 332.69579796 240.05638821 333.54769696 235.14535522 332.14044189 C230.14913041 329.21994333 225.67890919 325.72337172 221.14535522 322.14044189 C220.07162828 321.31518597 218.99617247 320.49217333 217.91879272 319.67169189 C215.79385555 318.04767043 213.67540276 316.41762564 211.56332397 314.77716064 C205.92662503 310.41182288 200.23764705 306.09892915 194.46192932 301.91899109 C192.14535522 300.14044189 192.14535522 300.14044189 189.69898987 297.89872742 C181.28795649 290.62562983 174.19256893 289.89981797 163.35629272 290.14825439 C161.7607213 290.15022473 160.16513897 290.14776832 158.56958008 290.1411438 C154.4002486 290.13357293 150.23312865 290.17667857 146.0642395 290.23376465 C139.38849651 290.3168931 132.7123256 290.32310521 126.03615189 290.32680893 C123.72378769 290.33554659 121.41262064 290.3668691 119.1005249 290.40194702 C105.99594071 290.53119071 96.88717854 288.50229842 87.23519897 279.32403564 C79.95041588 271.66805342 77.50713065 263.37544094 77.75473022 252.97637939 C77.76039001 252.05829498 77.7660498 251.14021057 77.7718811 250.19430542 C77.79403047 247.3007896 77.84418351 244.40857478 77.89535522 241.51544189 C77.91544805 239.53759537 77.9336939 237.55972916 77.95004272 235.58184814 C77.99382448 230.76755512 78.06269892 225.95421801 78.14535522 221.14044189 C67.06967066 229.25280009 56.05884769 237.43577707 45.17782593 245.80841064 C30.94319028 256.72737572 30.94319028 256.72737572 23.14535522 256.14044189 C18.62256827 253.96280373 16.21431485 251.67783036 14.14535522 247.14044189 C13.74106919 243.83779195 13.79614047 240.56885114 13.85238647 237.24591064 C13.85663132 236.29855545 13.86087616 235.35120026 13.86524963 234.37513733 C13.88199833 231.35911242 13.91964376 228.34376373 13.95785522 225.32794189 C13.97290698 223.27912344 13.98659452 221.23029448 13.99887085 219.18145752 C14.03188944 214.1675264 14.08364576 209.15409867 14.14535522 204.14044189 C13.46411591 204.1568573 12.78287659 204.17327271 12.08099365 204.19018555 C10.20245994 204.23545142 8.32390881 204.27999895 6.44534302 204.32391357 C4.48520326 204.37266326 2.52534977 204.43331424 0.56576538 204.50079346 C-10.37891324 204.62671108 -19.01343564 200.71930574 -26.85464478 193.14044189 C-36.33218428 182.50162285 -38.46625854 170.10011412 -38.35635376 156.24713135 C-38.36014897 154.91169672 -38.36565882 153.57626605 -38.37272644 152.24084473 C-38.38653805 148.65617493 -38.37561551 145.07199277 -38.35901523 141.4873507 C-38.34503223 137.71376808 -38.3516394 133.94020999 -38.35514832 130.16661072 C-38.35783909 123.83643857 -38.34446967 117.50645728 -38.32119751 111.17633057 C-38.2945603 103.88086076 -38.29285586 96.58570904 -38.30458587 89.29020721 C-38.31539979 82.23741332 -38.30915056 75.18473335 -38.29503059 68.13194847 C-38.2893055 65.14534974 -38.28932575 62.15883533 -38.29409599 59.17223549 C-38.299796 54.99650663 -38.28046112 50.82124488 -38.25869751 46.64556885 C-38.26319916 45.42089401 -38.26770081 44.19621918 -38.27233887 42.93443298 C-38.16276107 30.23711224 -34.87776462 19.81085389 -26.15933228 10.28887939 C-18.31106366 3.17068228 -10.48036006 -0.01220319 0 0 Z " fill="#51C65C" transform="translate(126.85464477539063,89.85955810546875)"/>
<path d="M0 0 C0.33 0 0.66 0 1 0 C1 27.39 1 54.78 1 83 C16.10749476 82.92105459 16.10749476 82.92105459 31.21484375 82.81982422 C33.12239355 82.81397769 35.02994586 82.80888251 36.9375 82.8046875 C37.91138672 82.79445557 38.88527344 82.78422363 39.88867188 82.77368164 C50.87808173 82.77089528 59.68755596 85.39695443 68.05078125 92.8203125 C75.88179964 101.10408784 77.59999655 110.0895799 77.51757812 121.17578125 C77.5245874 122.3511142 77.53159668 123.52644714 77.53881836 124.73739624 C77.55632474 128.59600939 77.54480084 132.45388028 77.53125 136.3125 C77.53214269 139.00952745 77.53782592 141.70654199 77.54284668 144.40356445 C77.55010027 150.0454909 77.54059596 155.68720712 77.52148438 161.32910156 C77.49971979 167.82876467 77.50677281 174.32792568 77.52879 180.82757664 C77.54700973 186.43302707 77.54947044 192.03832737 77.53903532 197.64379787 C77.53283615 200.98081744 77.53346216 204.3174144 77.54518127 207.65444946 C77.55538955 211.3780465 77.53978394 215.10069219 77.51757812 218.82421875 C77.52567505 219.91334564 77.53377197 221.00247253 77.54211426 222.12460327 C77.41958607 233.26821402 73.9774941 240.86961526 66.2890625 248.87109375 C59.16513366 255.4965907 50.29252393 258.21078599 40.66796875 258.078125 C39.60215576 258.0668457 38.53634277 258.05556641 37.43823242 258.04394531 C36.63361572 258.02944336 35.82899902 258.01494141 35 258 C35.01571045 258.9379541 35.0314209 259.8759082 35.04760742 260.84228516 C35.09891965 264.34234205 35.13643872 267.8419957 35.16479492 271.34228516 C35.17982543 272.85341727 35.20025564 274.36450618 35.22631836 275.87548828 C35.26295689 278.05512187 35.27978338 280.23417575 35.29296875 282.4140625 C35.31653442 284.37786865 35.31653442 284.37786865 35.34057617 286.38134766 C34.84558247 291.64070004 33.27888859 294.84291032 29.375 298.375 C24.84656818 300.55535606 21.91103299 301.40725507 17 300 C12.00377519 297.07950144 7.53355397 293.58292983 3 290 C1.92627305 289.17474407 0.85081725 288.35173143 -0.2265625 287.53125 C-2.35149968 285.90722853 -4.46995246 284.27718374 -6.58203125 282.63671875 C-12.21873019 278.27138098 -17.90770817 273.95848726 -23.6834259 269.77854919 C-26 268 -26 268 -28.44636536 265.75828552 C-36.85739874 258.48518793 -43.95278629 257.75937607 -54.7890625 258.0078125 C-56.38463393 258.00978283 -57.98021626 258.00732643 -59.57577515 258.0007019 C-63.74510662 257.99313104 -67.91222657 258.03623667 -72.08111572 258.09332275 C-78.75685871 258.1764512 -85.43302962 258.18266332 -92.10920334 258.18636703 C-94.42156753 258.19510469 -96.73273458 258.2264272 -99.04483032 258.26150513 C-112.14941451 258.39074882 -121.25817669 256.36185652 -130.91015625 247.18359375 C-140.53801476 237.06514372 -140.74577021 225.9794992 -140.74121094 212.68579102 C-140.75001668 209.80704796 -140.82294792 206.93431316 -140.8984375 204.05664062 C-141.06320662 190.76897649 -141.06320662 190.76897649 -138.37475586 186.29589844 C-136.33754503 184.48450536 -134.41397536 183.25071711 -132 182 C-130.95972656 181.20851563 -129.91945312 180.41703125 -128.84765625 179.6015625 C-127.92855469 178.94929687 -127.00945312 178.29703125 -126.0625 177.625 C-122.89700289 175.47560962 -122.89700289 175.47560962 -120 173 C-117.289872 172.86606441 -114.60309891 172.79584595 -111.89111328 172.76635742 C-111.0405687 172.75312943 -110.19002411 172.73990143 -109.31370544 172.72627258 C-107.45851594 172.69763413 -105.60329445 172.67101553 -103.74805069 172.64613914 C-100.80437241 172.60524732 -97.86095125 172.55601265 -94.91744995 172.50398254 C-86.54508195 172.35622333 -78.17273768 172.21327286 -69.79980469 172.10131836 C-64.68246908 172.03228287 -59.56573777 171.94453851 -54.44890976 171.84493446 C-52.50435122 171.81057641 -50.55965843 171.78306348 -48.6149025 171.76274681 C-35.53612871 171.62255647 -24.93295866 170.84930366 -14 163 C-13.34 163 -12.68 163 -12 163 C-11.67 162.01 -11.34 161.02 -11 160 C-10.34 160 -9.68 160 -9 160 C-8.62875 159.2265625 -8.62875 159.2265625 -8.25 158.4375 C-6.95108838 155.90462234 -5.49930637 153.4930216 -4 151.07421875 C-0.41317126 143.63435132 -0.69461772 136.29007036 -0.68115234 128.17016602 C-0.6718438 126.77013069 -0.66167376 125.37010087 -0.65071106 123.97007751 C-0.62350129 120.1855004 -0.60828855 116.40096032 -0.59528303 112.61631131 C-0.57961284 108.65512949 -0.55283508 104.69402286 -0.5272522 100.7328949 C-0.4805331 93.23913771 -0.44375582 85.74536627 -0.41057932 78.25153822 C-0.37230931 69.7170298 -0.32291197 61.18259704 -0.27259517 52.64815247 C-0.16937751 35.0988231 -0.08008417 17.54944988 0 0 Z " fill="#59CC5C" transform="translate(345,122)"/>
<path d="M0 0 C41.91 0 83.82 0 127 0 C127 8.25 127 16.5 127 25 C85.09 25 43.18 25 0 25 C0 16.75 0 8.5 0 0 Z " fill="#E1FFEA" transform="translate(154,154)"/>
<path d="M0 0 C20.79 0 41.58 0 63 0 C63 8.25 63 16.5 63 25 C42.21 25 21.42 25 0 25 C0 16.75 0 8.5 0 0 Z " fill="#D1FFDF" transform="translate(154,205)"/>
</svg>
